<?xml version="1.0" encoding="UTF-8" standalone="no" ?>
<!DOCTYPE svg PUBLIC "-//W3C//DTD SVG 1.1//EN" "http://www.w3.org/Graphics/SVG/1.1/DTD/svg11.dtd">
<svg xmlns="http://www.w3.org/2000/svg" xmlns:xlink="http://www.w3.org/1999/xlink" version="1.1" width="512" height="512" viewBox="0 0 512 512" xml:space="preserve">
<desc>Created with Fabric.js 3.6.3</desc>
<defs>
</defs>
<g transform="matrix(1 0 0 1 243 255)"  >
<path style="stroke: rgb(255,255,255); stroke-width: 300; stroke-dasharray: none; stroke-linecap: round; stroke-dashoffset: 0; stroke-linejoin: round; stroke-miterlimit: 10; fill: none; fill-rule: nonzero; opacity: 1;"  transform=" translate(-243, -255)" d="M 242.7 255 L 243.3 255" stroke-linecap="round" />
</g>
<g transform="matrix(1 0 0 1 216 244)"  >
<path style="stroke: rgb(255,255,255); stroke-width: 300; stroke-dasharray: none; stroke-linecap: round; stroke-dashoffset: 0; stroke-linejoin: round; stroke-miterlimit: 10; fill: none; fill-rule: nonzero; opacity: 1;"  transform=" translate(-216, -244)" d="M 215.7 244 L 216.3 244" stroke-linecap="round" />
</g>
<g transform="matrix(1 0 0 1 248 227)"  >
<path style="stroke: rgb(255,255,255); stroke-width: 300; stroke-dasharray: none; stroke-linecap: round; stroke-dashoffset: 0; stroke-linejoin: round; stroke-miterlimit: 10; fill: none; fill-rule: nonzero; opacity: 1;"  transform=" translate(-248, -227)" d="M 247.7 227 L 248.3 227" stroke-linecap="round" />
</g>
<g transform="matrix(1 0 0 1 225 232)"  >
<path style="stroke: rgb(255,255,255); stroke-width: 300; stroke-dasharray: none; stroke-linecap: round; stroke-dashoffset: 0; stroke-linejoin: round; stroke-miterlimit: 10; fill: none; fill-rule: nonzero; opacity: 1;"  transform=" translate(-225, -232)" d="M 224.7 232 L 225.3 232" stroke-linecap="round" />
</g>
<g transform="matrix(1 0 0 1 270 237)"  >
<path style="stroke: rgb(255,255,255); stroke-width: 300; stroke-dasharray: none; stroke-linecap: round; stroke-dashoffset: 0; stroke-linejoin: round; stroke-miterlimit: 10; fill: none; fill-rule: nonzero; opacity: 1;"  transform=" translate(-270, -237)" d="M 269.7 237 L 270.3 237" stroke-linecap="round" />
</g>
<g transform="matrix(1 0 0 1 269 227)"  >
<path style="stroke: rgb(255,255,255); stroke-width: 300; stroke-dasharray: none; stroke-linecap: round; stroke-dashoffset: 0; stroke-linejoin: round; stroke-miterlimit: 10; fill: none; fill-rule: nonzero; opacity: 1;"  transform=" translate(-269, -227)" d="M 268.7 227 L 269.3 227" stroke-linecap="round" />
</g>
<g transform="matrix(1 0 0 1 234 253)"  >
<path style="stroke: rgb(255,255,255); stroke-width: 300; stroke-dasharray: none; stroke-linecap: round; stroke-dashoffset: 0; stroke-linejoin: round; stroke-miterlimit: 10; fill: none; fill-rule: nonzero; opacity: 1;"  transform=" translate(-234, -253)" d="M 233.7 253 L 234.3 253" stroke-linecap="round" />
</g>
<g transform="matrix(1 0 0 1 235 260)"  >
<path style="stroke: rgb(255,255,255); stroke-width: 300; stroke-dasharray: none; stroke-linecap: round; stroke-dashoffset: 0; stroke-linejoin: round; stroke-miterlimit: 10; fill: none; fill-rule: nonzero; opacity: 1;"  transform=" translate(-235, -260)" d="M 234.7 260 L 235.3 260" stroke-linecap="round" />
</g>
<g transform="matrix(1 0 0 1 233 261)"  >
<path style="stroke: rgb(255,255,255); stroke-width: 300; stroke-dasharray: none; stroke-linecap: round; stroke-dashoffset: 0; stroke-linejoin: round; stroke-miterlimit: 10; fill: none; fill-rule: nonzero; opacity: 1;"  transform=" translate(-233, -261)" d="M 232.7 261 L 233.3 261" stroke-linecap="round" />
</g>
<g transform="matrix(1 0 0 1 220 260)"  >
<path style="stroke: rgb(255,255,255); stroke-width: 300; stroke-dasharray: none; stroke-linecap: round; stroke-dashoffset: 0; stroke-linejoin: round; stroke-miterlimit: 10; fill: none; fill-rule: nonzero; opacity: 1;"  transform=" translate(-220, -260)" d="M 219.7 260 L 220.3 260" stroke-linecap="round" />
</g>
<g transform="matrix(1.89 0 0 1.89 255.4 256.4)"  >
<g style=""   >
		<g transform="matrix(1 0 0 1 11.75 12.65)" id="lower_circle"  >
<circle style="stroke: none; stroke-width: 1; stroke-dasharray: none; stroke-linecap: butt; stroke-dashoffset: 0; stroke-linejoin: miter; stroke-miterlimit: 4; fill: rgb(253,204,128); fill-rule: nonzero; opacity: 1;"  cx="0" cy="0" r="100.2" />
</g>
		<g transform="matrix(1 0 0 1 -0.65 -0.15)" id="inner_circle"  >
<circle style="stroke: none; stroke-width: 1; stroke-dasharray: none; stroke-linecap: butt; stroke-dashoffset: 0; stroke-linejoin: miter; stroke-miterlimit: 4; fill: rgb(255,255,255); fill-rule: nonzero; opacity: 1;"  cx="0" cy="0" r="36.8" />
</g>
		<g transform="matrix(1 0 0 1 -0.99 1.8)" id="upper_frosting"  >
<path style="stroke: none; stroke-width: 1; stroke-dasharray: none; stroke-linecap: butt; stroke-dashoffset: 0; stroke-linejoin: miter; stroke-miterlimit: 4; fill: rgb(250,116,113); fill-rule: nonzero; opacity: 0.5;"  transform=" translate(-149.06, -16.15)" d="M 108.7 105.5 c -6.6 0.3 -31.9 -13.4 -42.4 -49.5 c -1.9 -6.6 -4.5 -16.8 -4.5 -29.6 c 0 -55 44.6 -99.6 99.6 -99.6 c 13.1 0 23.5 2.7 29.6 4.5 c 34.4 10.4 48 34.1 44.9 40.5 s -10.6 -3.4 -22.9 -2.5 c -1.4 0.1 -4.2 4 -4.2 6.2 c 0 7.2 13.5 12.7 14.6 15.9 c 1.7 5 3.4 6.2 2.3 9.5 c -1.5 4.8 -2.9 3.6 -5.2 5.9 c -0.9 0.9 -5.6 0.7 -16.6 -1.7 c -5.9 -1.3 -18 -11.2 -18 -11.4 c 0 -0.4 -16.2 -13.3 -30.2 -14.8 c -6.6 -0.7 -28.1 -2.8 -39.2 19.2 c -0.5 1.1 -4.4 20 -4.2 22.5 c 0.9 11.9 7 24.7 12.1 27.5 c 11.7 6.4 12.9 14.7 12.8 14.4 c -0.1 -0.4 7.8 14.7 8.2 17.3 c 0.3 2.1 -0.8 7.4 -3.7 8.7 c -3.5 1.5 -7.7 -1.7 -8.4 -2.1 c -0.8 -0.5 -10.7 -16.3 -19.5 -13.1 c -0.8 0.3 -6 3.7 -7.6 5 c -0.3 0.2 4.8 15.4 5.6 18.5 c 0.5 1.8 -2.3 8.7 -3.1 8.7 z" stroke-linecap="round" />
</g>
		<g transform="matrix(1 0 0 1 -14.36 -79.49)" id="sprinkles"  >
<path style="stroke: none; stroke-width: 1; stroke-dasharray: none; stroke-linecap: butt; stroke-dashoffset: 0; stroke-linejoin: miter; stroke-miterlimit: 4; fill: rgb(250,116,113); fill-rule: nonzero; opacity: 1;"  transform=" translate(-135.69, 65.14)" d="M 135.1 -69.3 h -0.2 c -2.3 0.4 -3.8 2.6 -3.4 4.9 c 0.4 2.3 2.6 3.8 4.9 3.4 c 0.8 -0.1 1.5 -0.5 2.1 -1 c 1 -0.9 1.6 -2.3 1.4 -3.7 c -0.3 -2.3 -2.5 -3.9 -4.8 -3.6 z" stroke-linecap="round" />
</g>
		<g transform="matrix(1 0 0 1 31.15 -70.89)" id="sprinkles"  >
<path style="stroke: none; stroke-width: 1; stroke-dasharray: none; stroke-linecap: butt; stroke-dashoffset: 0; stroke-linejoin: miter; stroke-miterlimit: 4; fill: rgb(250,116,113); fill-rule: nonzero; opacity: 1;"  transform=" translate(-181.2, 56.54)" d="M 181.7 -65 c -2.3 -0.1 -4.3 1.7 -4.5 4 l -0.5 8.4 c -0.1 2.3 1.7 4.3 4 4.5 c 1.2 0.1 2.2 -0.3 3.1 -1.1 c 0.8 -0.7 1.3 -1.7 1.4 -2.9 l 0.5 -8.4 c 0.1 -2.4 -1.7 -4.4 -4 -4.5 z" stroke-linecap="round" />
</g>
		<g transform="matrix(1 0 0 1 -56.15 41.21)" id="sprinkles"  >
<path style="stroke: none; stroke-width: 1; stroke-dasharray: none; stroke-linecap: butt; stroke-dashoffset: 0; stroke-linejoin: miter; stroke-miterlimit: 4; fill: rgb(250,116,113); fill-rule: nonzero; opacity: 1;"  transform=" translate(-93.9, -55.56)" d="M 94.4 47.1 c -2.3 -0.1 -4.3 1.7 -4.5 4 l -0.5 8.4 c -0.1 2.3 1.7 4.3 4 4.5 c 1.2 0.1 2.2 -0.3 3.1 -1.1 c 0.8 -0.7 1.3 -1.7 1.4 -2.9 l 0.5 -8.4 c 0.1 -2.4 -1.7 -4.4 -4 -4.5 z" stroke-linecap="round" />
</g>
		<g transform="matrix(1 0 0 1 -85.15 -4.19)" id="sprinkles"  >
<path style="stroke: none; stroke-width: 1; stroke-dasharray: none; stroke-linecap: butt; stroke-dashoffset: 0; stroke-linejoin: miter; stroke-miterlimit: 4; fill: rgb(165,117,183); fill-rule: nonzero; opacity: 1;"  transform=" translate(-64.9, -10.16)" d="M 65.4 1.7 c -2.3 -0.1 -4.3 1.7 -4.5 4 l -0.5 8.4 c -0.1 2.3 1.7 4.3 4 4.5 c 1.2 0.1 2.2 -0.3 3.1 -1.1 s 1.3 -1.7 1.4 -2.9 l 0.5 -8.4 c 0.1 -2.3 -1.7 -4.3 -4 -4.5 z" stroke-linecap="round" />
</g>
		<g transform="matrix(1 0 0 1 6.9 -70.22)" id="sprinkles"  >
<path style="stroke: none; stroke-width: 1; stroke-dasharray: none; stroke-linecap: butt; stroke-dashoffset: 0; stroke-linejoin: miter; stroke-miterlimit: 4; fill: rgb(165,117,183); fill-rule: nonzero; opacity: 1;"  transform=" translate(-156.95, 55.87)" d="M 157.2 -61.8 l -6.2 5.6 c -1.7 1.6 -1.9 4.2 -0.3 6 c 1.6 1.7 4.2 1.9 6 0.3 l 6.2 -5.6 c 1.7 -1.6 1.9 -4.2 0.3 -6 s -4.3 -1.9 -6 -0.3 z" stroke-linecap="round" />
</g>
		<g transform="matrix(1 0 0 1 -60.66 -33.64)" id="sprinkles"  >
<path style="stroke: none; stroke-width: 1; stroke-dasharray: none; stroke-linecap: butt; stroke-dashoffset: 0; stroke-linejoin: miter; stroke-miterlimit: 4; fill: rgb(250,116,113); fill-rule: nonzero; opacity: 1;"  transform=" translate(-89.39, 19.29)" d="M 93.8 -23.3 l -8.3 -0.5 c -2.3 -0.1 -4.3 1.7 -4.5 4 s 1.7 4.3 4 4.5 l 8.3 0.5 c 1.2 0.1 2.2 -0.3 3.1 -1.1 c 0.8 -0.7 1.3 -1.7 1.4 -2.9 c 0.1 -2.4 -1.7 -4.4 -4 -4.5 z" stroke-linecap="round" />
</g>
		<g transform="matrix(1 0 0 1 34.64 -45.44)" id="sprinkles"  >
<path style="stroke: none; stroke-width: 1; stroke-dasharray: none; stroke-linecap: butt; stroke-dashoffset: 0; stroke-linejoin: miter; stroke-miterlimit: 4; fill: rgb(165,117,183); fill-rule: nonzero; opacity: 1;"  transform=" translate(-184.69, 31.09)" d="M 189.1 -35.1 l -8.3 -0.5 c -2.3 -0.1 -4.3 1.7 -4.5 4 s 1.7 4.3 4 4.5 l 8.3 0.5 c 1.2 0.1 2.2 -0.3 3.1 -1.1 s 1.3 -1.7 1.4 -2.9 c 0.1 -2.4 -1.6 -4.4 -4 -4.5 z" stroke-linecap="round" />
</g>
		<g transform="matrix(1 0 0 1 -23.43 -55.24)" id="sprinkles"  >
<path style="stroke: none; stroke-width: 1; stroke-dasharray: none; stroke-linecap: butt; stroke-dashoffset: 0; stroke-linejoin: miter; stroke-miterlimit: 4; fill: rgb(250,116,113); fill-rule: nonzero; opacity: 1;"  transform=" translate(-126.62, 40.89)" d="M 132.4 -42.3 l -7.1 -4.4 c -2 -1.2 -4.6 -0.6 -5.8 1.4 c -1.2 2 -0.6 4.6 1.4 5.8 l 7.1 4.4 c 1 0.6 2.1 0.8 3.2 0.5 c 1.1 -0.2 2 -0.9 2.6 -1.9 c 1.1 -2 0.5 -4.6 -1.4 -5.8 z" stroke-linecap="round" />
</g>
		<g transform="matrix(1 0 0 1 -57.84 -1.24)" id="sprinkles"  >
<path style="stroke: none; stroke-width: 1; stroke-dasharray: none; stroke-linecap: butt; stroke-dashoffset: 0; stroke-linejoin: miter; stroke-miterlimit: 4; fill: rgb(165,117,183); fill-rule: nonzero; opacity: 1;"  transform=" translate(-92.21, -13.11)" d="M 88.2 5.7 c -2.1 1.1 -2.8 3.7 -1.7 5.7 l 4 7.4 c 1.1 2.1 3.7 2.8 5.7 1.7 c 1.1 -0.6 1.8 -1.6 2.1 -2.7 c 0.3 -1 0.1 -2.1 -0.4 -3 l -4 -7.4 c -1.1 -2 -3.7 -2.8 -5.7 -1.7 z" stroke-linecap="round" />
</g>
		<g transform="matrix(1 0 0 1 82.43 -90.25)"  >
<path style="stroke: none; stroke-width: 1; stroke-dasharray: none; stroke-linecap: butt; stroke-dashoffset: 0; stroke-linejoin: miter; stroke-miterlimit: 4; fill: rgb(165,117,183); fill-rule: nonzero; opacity: 1;"  transform=" translate(-232.48, 75.9)" d="M 232.5 -83.3 c -2.2 3.1 -4.6 6 -7.2 8.7 c -1.8 1.9 -1.7 4.9 0.1 6.7 c 1.9 1.8 4.9 1.7 6.7 -0.1 c 2.9 -3 5.6 -6.3 8 -9.7 c 1.5 -2.1 1 -5.1 -1.1 -6.6 s -5 -1.1 -6.5 1 z" stroke-linecap="round" />
</g>
		<g transform="matrix(1 0 0 1 -0.69 -122.1)"  >
<path style="stroke: none; stroke-width: 1; stroke-dasharray: none; stroke-linecap: butt; stroke-dashoffset: 0; stroke-linejoin: miter; stroke-miterlimit: 4; fill: rgb(165,117,183); fill-rule: nonzero; opacity: 1;"  transform=" translate(-149.36, 107.75)" d="M 144.7 -113.4 c 0.2 3.7 0.2 7.5 -0.2 11.2 c -0.2 2.6 1.7 4.9 4.3 5.1 c 2.6 0.2 4.9 -1.7 5.1 -4.3 c 0.4 -4.2 0.4 -8.4 0.2 -12.6 c -0.2 -2.6 -2.4 -4.6 -5 -4.4 c -2.5 0.1 -4.5 2.4 -4.4 5 z" stroke-linecap="round" />
</g>
		<g transform="matrix(1 0 0 1 -83.44 -90.19)"  >
<path style="stroke: none; stroke-width: 1; stroke-dasharray: none; stroke-linecap: butt; stroke-dashoffset: 0; stroke-linejoin: miter; stroke-miterlimit: 4; fill: rgb(165,117,183); fill-rule: nonzero; opacity: 1;"  transform=" translate(-66.61, 75.84)" d="M 59.3 -75.7 c 3.1 2.2 6 4.5 8.7 7.1 c 1.9 1.8 4.9 1.7 6.7 -0.2 s 1.7 -4.9 -0.2 -6.7 c -3 -2.9 -6.3 -5.5 -9.8 -8 c -2.1 -1.5 -5.1 -1 -6.6 1.1 s -1 5.2 1.2 6.7 z" stroke-linecap="round" />
</g>
		<g transform="matrix(1 0 0 1 -121.69 -7.33)"  >
<path style="stroke: none; stroke-width: 1; stroke-dasharray: none; stroke-linecap: butt; stroke-dashoffset: 0; stroke-linejoin: miter; stroke-miterlimit: 4; fill: rgb(165,117,183); fill-rule: nonzero; opacity: 1;"  transform=" translate(-28.36, -7.02)" d="M 22.6 11.6 c 3.7 -0.2 7.5 -0.1 11.2 0.3 c 2.6 0.3 4.9 -1.6 5.2 -4.2 s -1.6 -4.9 -4.2 -5.2 c -4.2 -0.4 -8.4 -0.5 -12.6 -0.3 c -2.6 0.1 -4.6 2.3 -4.5 4.9 c 0.1 2.7 2.3 4.7 4.9 4.5 z" stroke-linecap="round" />
</g>
		<g transform="matrix(1 0 0 1 -89.86 80.49)"  >
<path style="stroke: none; stroke-width: 1; stroke-dasharray: none; stroke-linecap: butt; stroke-dashoffset: 0; stroke-linejoin: miter; stroke-miterlimit: 4; fill: rgb(165,117,183); fill-rule: nonzero; opacity: 1;"  transform=" translate(-60.19, -94.84)" d="M 60.2 102.2 c 2.2 -3 4.6 -5.9 7.2 -8.6 c 1.8 -1.9 1.8 -4.9 -0.1 -6.7 c -1.9 -1.8 -4.9 -1.8 -6.7 0.1 c -2.9 3 -5.6 6.3 -8.1 9.7 c -1.5 2.1 -1 5.1 1.1 6.6 c 2.1 1.4 5 1 6.6 -1.1 z" stroke-linecap="round" />
</g>
		<g transform="matrix(1 0 0 1 -0.95 0.65)"  >
<circle style="stroke: rgb(138,61,155); stroke-width: 8.2; stroke-dasharray: none; stroke-linecap: butt; stroke-dashoffset: 0; stroke-linejoin: miter; stroke-miterlimit: 10; fill: none; fill-rule: nonzero; opacity: 1;"  cx="0" cy="0" r="99.4" />
</g>
		<g transform="matrix(1 0 0 1 62.26 -27.13)" id="side_swirl"  >
<path style="stroke: none; stroke-width: 1; stroke-dasharray: none; stroke-linecap: butt; stroke-dashoffset: 0; stroke-linejoin: miter; stroke-miterlimit: 4; fill: rgb(138,61,155); fill-rule: nonzero; opacity: 1;"  transform=" translate(-212.31, 12.78)" d="M 192.5 5.6 c 4.2 -4.4 9.6 0.5 13.6 2.9 c 4 2.3 7.9 3.4 12.4 2.3 c 8.7 -1.9 13.9 -9.9 10.2 -18.5 c -1.9 -4.4 -5.5 -7.4 -9.5 -9.8 c -2.3 -1.4 -5.5 -2.5 -7 -4.9 c -2.6 -4.1 2.6 -5.6 5.7 -4.4 c 4.6 1.7 8.3 3.1 13.2 1.4 c 3.5 -1.2 7.6 -1.6 8.2 -6.1 c 0.7 -5.3 -7.4 -7.6 -8.1 -2.2 c -0.1 0.2 -0.1 0.5 -0.2 0.7 c 0.8 -0.6 1.7 -1.3 2.5 -1.9 c -1.6 0.6 -3.3 1 -4.9 1.5 c -3.2 1 -5.2 -0.1 -8 -1.3 c -4.2 -1.6 -8.7 -1.6 -12.6 0.9 c -8.9 5.9 -4.6 16.6 2.8 21.3 c 3.9 2.5 10.3 4.7 10.5 10.2 c 0.2 6.1 -7.6 5.7 -11.2 3.6 c -7.7 -4.5 -16.2 -9.3 -23.7 -1.6 c -3.6 3.9 2.3 9.8 6.1 5.9 z" stroke-linecap="round" />
</g>
		<g transform="matrix(1 0 0 1 -25.59 65.42)" id="side_swirl"  >
<path style="stroke: none; stroke-width: 1; stroke-dasharray: none; stroke-linecap: butt; stroke-dashoffset: 0; stroke-linejoin: miter; stroke-miterlimit: 4; fill: rgb(138,61,155); fill-rule: nonzero; opacity: 1;"  transform=" translate(-124.46, -79.77)" d="M 132.5 56.1 c -0.9 3.8 -0.5 7.5 1.3 11 c 1.8 3.6 7.8 8 7.6 12.1 c -0.1 3.1 -2.8 4.1 -5.5 3.5 s -4.2 -2.3 -5.7 -4.5 c -2.3 -3.3 -4.5 -6.6 -8.2 -8.5 c -6.7 -3.5 -15.8 -3 -19.4 4.4 c -1.8 3.7 -2.1 8.1 -0.9 12.1 c 0.7 2.3 2 4.3 3.3 6.3 c 0.7 1.2 1.6 2.2 1.3 3.7 c -0.4 1.7 -1.3 1.6 -3.1 1.8 c -5.3 0.6 -5.4 9 0 8.4 c 4 -0.5 8.2 -1.3 10.5 -4.9 c 2.3 -3.7 1.4 -8.1 -0.6 -11.7 c -1.4 -2.6 -3.5 -4.9 -3.7 -7.9 c -0.3 -4.2 2.2 -6.4 6.2 -5.5 c 5.8 1.3 7.2 7.2 11.1 11 c 5.7 5.5 17.4 5.9 21.4 -1.7 c 2.1 -3.9 2.2 -8.7 0.1 -12.6 c -2.5 -4.6 -9 -8.8 -7.6 -14.6 c 1.2 -5.4 -6.9 -7.7 -8.1 -2.4 z" stroke-linecap="round" />
</g>
		<g transform="matrix(1 0 0 1 0.77 0.36)" id="side_swirl"  >
<path style="stroke: none; stroke-width: 1; stroke-dasharray: none; stroke-linecap: butt; stroke-dashoffset: 0; stroke-linejoin: miter; stroke-miterlimit: 4; fill: rgb(138,61,155); fill-rule: nonzero; opacity: 1;"  transform=" translate(-150.82, -14.71)" d="M 138.2 -20 c 13.4 -2.9 27.6 -0.7 37.5 9.4 c 7.8 8 11.8 19.6 10.2 30.7 c -3.9 27.4 -37.5 39.4 -58.4 22 c -12.2 -10.2 -14.2 -25.9 -10.4 -40.6 c 1.4 -5.6 -7.2 -8 -8.7 -2.4 c -4.2 16.3 -2.4 33.7 9.6 46.4 c 9.3 9.9 23.6 15.2 37.1 13.8 c 17.5 -1.8 32.6 -13.9 38.1 -30.7 c 4.6 -13.9 1.4 -29.7 -7.4 -41.3 c -11.9 -15.7 -31.3 -20 -49.9 -16 c -5.7 1.2 -3.3 9.9 2.3 8.7 z" stroke-linecap="round" />
</g>
		<g transform="matrix(1 0 0 1 -53.62 -63.9)" id="side_swirl"  >
<path style="stroke: none; stroke-width: 1; stroke-dasharray: none; stroke-linecap: butt; stroke-dashoffset: 0; stroke-linejoin: miter; stroke-miterlimit: 4; fill: rgb(165,117,183); fill-rule: nonzero; opacity: 1;"  transform=" translate(-96.43, 49.55)" d="M 99.3 -54.8 l -8 2.4 c -2.2 0.7 -3.5 3 -2.9 5.2 c 0.7 2.2 3 3.5 5.2 2.9 l 8 -2.4 c 1.1 -0.3 2 -1.1 2.5 -2 s 0.7 -2.1 0.3 -3.2 c -0.5 -2.2 -2.9 -3.5 -5.1 -2.9 z" stroke-linecap="round" />
</g>
		<g transform="matrix(1 0 0 1 -67.65 20.54)" id="side_swirl"  >
<path style="stroke: none; stroke-width: 1; stroke-dasharray: none; stroke-linecap: butt; stroke-dashoffset: 0; stroke-linejoin: miter; stroke-miterlimit: 4; fill: rgb(250,116,113); fill-rule: nonzero; opacity: 1;"  transform=" translate(-82.4, -34.89)" d="M 81.8 30.7 h -0.2 c -3.2 0.6 -4.9 4.7 -1.8 7.7 c 2.1 1.2 4.1 0.8 5.4 -0.4 c 1 -0.9 1.6 -2.3 1.4 -3.7 c -0.4 -2.3 -2.5 -3.9 -4.8 -3.6 z" stroke-linecap="round" />
</g>
		<g transform="matrix(1 0 0 1 -27.22 -29.11)" id="side_swirl"  >
<path style="stroke: none; stroke-width: 1; stroke-dasharray: none; stroke-linecap: butt; stroke-dashoffset: 0; stroke-linejoin: miter; stroke-miterlimit: 4; fill: rgb(138,61,155); fill-rule: nonzero; opacity: 1;"  transform=" translate(-122.83, 14.76)" d="M 124.3 -21.7 c -3.2 1.7 -6.1 4.3 -8.3 7.1 c -1.4 1.8 -1.1 4.9 0.8 6.3 c 2 1.5 4.7 1.1 6.3 -0.8 c 0.4 -0.5 0.8 -0.9 1.2 -1.4 l 0.1 -0.1 c 0.2 -0.3 0.6 -0.5 0.8 -0.8 c 0.6 -0.4 1 -0.9 1.6 -1.3 c 0.3 -0.3 0.6 -0.4 0.9 -0.6 c 0.8 -0.5 -0.6 0.3 0.1 -0.1 c 2 -1.1 3.5 -3.6 2.3 -6 c -0.9 -2 -3.5 -3.5 -5.8 -2.3 z" stroke-linecap="round" />
</g>
</g>
</g>
</svg>